<svg width="200" height="200">
  <rect x="10" y="10" width="180" height="180" fill="#333333" />
  <circle cx="50" cy="50" r="40" fill="#ffffff" />
  <circle cx="150" cy="50" r="40" fill="#ffffff" />
  <rect x="70" y="140" width="60" height="20" fill="#ffffff" />
  <polygon points="100,30 110,50 120,30" fill="#ffffff" />
  <polygon points="100,170 110,150 120,170" fill="#ffffff" />
  <path d="M 50 50 a 40 40 0 0 1 40 40" stroke="#ffffff" stroke-width="5" fill="none" />
  <path d="M 150 50 a 40 40 0 0 1 40 40" stroke="#ffffff" stroke-width="5" fill="none" />
  <line x1="60" y1="70" x2="140" y2="70" stroke="#ffffff" stroke-width="5" />
  <rect x="20" y="20" width="20" height="20" fill="#333333" />
  <rect x="160" y="20" width="20" height="20" fill="#333333" />
  <rect x="20" y="160" width="20" height="20" fill="#333333" />
  <rect x="160" y="160" width="20" height="20" fill="#333333" />
  <circle cx="30" cy="30" r="10" fill="#ff0000" />
  <circle cx="170" cy="30" r="10" fill="#ff0000" />
</svg>